<?xml version="1.0" standalone="no"?>
<!DOCTYPE svg PUBLIC "-//W3C//DTD SVG 20010904//EN"
 "http://www.w3.org/TR/2001/REC-SVG-20010904/DTD/svg10.dtd">
<svg version="1.0" xmlns="http://www.w3.org/2000/svg"
 width="700.000000pt" height="700.000000pt" viewBox="0 0 700.000000 700.000000"
 preserveAspectRatio="xMidYMid meet">
<g transform="translate(0.000000,700.000000) scale(0.100000,-0.100000)"
fill="#000000" stroke="none">
<path d="M2922 6694 c-273 -57 -491 -263 -564 -531 -18 -67 -21 -112 -23 -328
-2 -137 -4 -260 -4 -272 l-1 -22 -602 0 c-332 0 -621 -3 -643 -6 -234 -37
-427 -214 -481 -441 -14 -59 -17 -149 -18 -647 0 -319 1 -583 4 -587 3 -4 131
-10 285 -13 154 -2 287 -7 295 -9 8 -3 35 -10 60 -17 184 -52 339 -166 444
-325 144 -219 172 -474 80 -718 -14 -37 -36 -84 -50 -103 -13 -20 -24 -39 -24
-42 0 -11 -73 -97 -119 -141 -100 -94 -213 -157 -351 -192 -77 -20 -99 -22
-365 -24 l-260 -1 0 -583 c-1 -633 1 -655 55 -769 72 -156 197 -263 370 -318
50 -16 114 -18 658 -20 331 -1 602 1 603 4 1 3 3 121 4 261 2 140 5 269 8 285
64 396 402 679 800 670 194 -5 372 -77 516 -210 119 -109 213 -282 238 -438 3
-17 7 -39 8 -47 2 -8 4 -130 4 -271 l1 -256 598 2 c328 1 610 5 625 9 210 50
374 197 440 396 26 78 28 126 28 740 1 552 2 600 17 601 10 0 132 2 272 3 220
3 266 6 333 25 162 43 315 149 411 285 59 83 111 206 124 296 9 60 8 183 -1
245 -44 292 -294 543 -591 595 -33 5 -173 10 -312 10 l-252 0 -1 608 c0 334
-3 625 -6 647 -27 200 -185 392 -380 462 -87 31 -151 34 -752 34 l-612 0 -1
254 c0 140 -5 280 -11 312 -26 142 -93 272 -194 377 -55 57 -185 156 -185 140
0 -3 -6 -2 -13 4 -19 16 -114 52 -155 58 -21 3 -41 9 -46 12 -19 11 -203 8
-264 -4z"/>
</g>
</svg>
